<svg id="mermaid-svg" width="714.5" xmlns="http://www.w3.org/2000/svg" height="407" viewBox="-20 -20 714.5 407"><style>#mermaid-svg{font-family:DejaVu Sans Mono;font-size:16px;fill:#333;}#mermaid-svg .error-icon{fill:hsl(180,0%,100%);}#mermaid-svg .error-text{fill:#000000;stroke:#000000;}#mermaid-svg .edge-thickness-normal{stroke-width:2px;}#mermaid-svg .edge-thickness-thick{stroke-width:3.5px;}#mermaid-svg .edge-pattern-solid{stroke-dasharray:0;}#mermaid-svg .edge-pattern-dashed{stroke-dasharray:3;}#mermaid-svg .edge-pattern-dotted{stroke-dasharray:2;}#mermaid-svg .marker{fill:#0b0b0b;}#mermaid-svg .marker.cross{stroke:#0b0b0b;}#mermaid-svg svg{font-family:DejaVu Sans Mono;font-size:16px;}#mermaid-svg g.classGroup text{fill:#000000;fill:#333;stroke:none;font-family:DejaVu Sans Mono;font-size:10px;}#mermaid-svg g.classGroup text .title{font-weight:bolder;}#mermaid-svg .node rect,#mermaid-svg .node circle,#mermaid-svg .node ellipse,#mermaid-svg .node polygon,#mermaid-svg .node path{fill:#ffffff;stroke:#000000;stroke-width:1px;}#mermaid-svg .divider{stroke:#000000;stroke:1;}#mermaid-svg g.clickable{cursor:pointer;}#mermaid-svg g.classGroup rect{fill:#ffffff;stroke:#000000;}#mermaid-svg g.classGroup line{stroke:#000000;stroke-width:1;}#mermaid-svg .classLabel .box{stroke:none;stroke-width:0;fill:#ffffff;opacity:0.5;}#mermaid-svg .classLabel .label{fill:#000000;font-size:10px;}#mermaid-svg .relation{stroke:#0b0b0b;stroke-width:1;fill:none;}#mermaid-svg .dashed-line{stroke-dasharray:3;}#mermaid-svg #compositionStart,#mermaid-svg .composition{fill:#0b0b0b !important;stroke:#0b0b0b !important;stroke-width:1;}#mermaid-svg #compositionEnd,#mermaid-svg .composition{fill:#0b0b0b !important;stroke:#0b0b0b !important;stroke-width:1;}#mermaid-svg #dependencyStart,#mermaid-svg .dependency{fill:#0b0b0b !important;stroke:#0b0b0b !important;stroke-width:1;}#mermaid-svg #dependencyStart,#mermaid-svg .dependency{fill:#0b0b0b !important;stroke:#0b0b0b !important;stroke-width:1;}#mermaid-svg #extensionStart,#mermaid-svg .extension{fill:#0b0b0b !important;stroke:#0b0b0b !important;stroke-width:1;}#mermaid-svg #extensionEnd,#mermaid-svg .extension{fill:#0b0b0b !important;stroke:#0b0b0b !important;stroke-width:1;}#mermaid-svg #aggregationStart,#mermaid-svg .aggregation{fill:#ffffff !important;stroke:#0b0b0b !important;stroke-width:1;}#mermaid-svg #aggregationEnd,#mermaid-svg .aggregation{fill:#ffffff !important;stroke:#0b0b0b !important;stroke-width:1;}#mermaid-svg:root{--mermaid-font-family:"trebuchet ms",verdana,arial;}#mermaid-svg class{fill:apa;}</style><g></g><defs><marker id="extensionStart" class="extension" refX="0" refY="7" markerWidth="190" markerHeight="240" orient="auto"><path d="M 1,7 L18,13 V 1 Z"></path></marker></defs><defs><marker id="extensionEnd" refX="19" refY="7" markerWidth="20" markerHeight="28" orient="auto"><path d="M 1,1 V 13 L18,7 Z"></path></marker></defs><defs><marker id="compositionStart" class="extension" refX="0" refY="7" markerWidth="190" markerHeight="240" orient="auto"><path d="M 18,7 L9,13 L1,7 L9,1 Z"></path></marker></defs><defs><marker id="compositionEnd" refX="19" refY="7" markerWidth="20" markerHeight="28" orient="auto"><path d="M 18,7 L9,13 L1,7 L9,1 Z"></path></marker></defs><defs><marker id="aggregationStart" class="extension" refX="0" refY="7" markerWidth="190" markerHeight="240" orient="auto"><path d="M 18,7 L9,13 L1,7 L9,1 Z"></path></marker></defs><defs><marker id="aggregationEnd" refX="19" refY="7" markerWidth="20" markerHeight="28" orient="auto"><path d="M 18,7 L9,13 L1,7 L9,1 Z"></path></marker></defs><defs><marker id="dependencyStart" class="extension" refX="0" refY="7" markerWidth="190" markerHeight="240" orient="auto"><path d="M 5,7 L9,13 L1,7 L9,1 Z"></path></marker></defs><defs><marker id="dependencyEnd" refX="19" refY="7" markerWidth="20" markerHeight="28" orient="auto"><path d="M 18,7 L9,13 L14,7 L9,1 Z"></path></marker></defs><g id="classid-NodeInspector-0" class="classGroup" transform="translate(182,0 )"><rect x="0" y="0" width="213" height="148" class=" "></rect><text y="15" x="0"><tspan class="title" x="67.5">NodeInspector</tspan></text><line x1="0" y1="21" y2="21" x2="213"></line><text x="5" y="31" fill="white" class="classText"><tspan x="5">-repl: Repl</tspan><tspan x="5" dy="10">-client: InspectClient</tspan><tspan x="5" dy="10">-watchService: WatchService</tspan><tspan x="5" dy="10">-opts: [port, host, file, ...]</tspan><tspan x="5" dy="10">-...</tspan></text><line x1="0" y1="77" y2="77" x2="213"></line><text x="5" y="92" fill="white" class="classText"><tspan x="5">+constructor(opts, stdin, stdout)</tspan><tspan x="5" dy="10">-startServer()</tspan><tspan x="5" dy="10">-connectServer()</tspan><tspan x="5" dy="10">-loadWatchers()</tspan><tspan x="5" dy="10">+print(message)</tspan><tspan x="5" dy="10">+[domains[:]]()</tspan></text></g><g id="classid-Repl-1" class="classGroup" transform="translate(0,198 )"><rect x="0" y="0" width="129" height="68" class=" "></rect><text y="15" x="0"><tspan class="title" x="52.5">Repl</tspan></text><line x1="0" y1="21" y2="21" x2="129"></line><text x="5" y="31" fill="white" class="classText"><tspan x="5">-history: String[]</tspan><tspan x="5" dy="10">-...</tspan></text><line x1="0" y1="47" y2="47" x2="129"></line><text x="5" y="62" fill="white" class="classText"><tspan x="5">-controlEval(input)</tspan></text></g><g id="classid-WatcherService-2" class="classGroup" transform="translate(179,198 )"><rect x="0" y="0" width="219" height="68" class=" "></rect><text y="15" x="0"><tspan class="title" x="67.5">WatcherService</tspan></text><line x1="0" y1="21" y2="21" x2="219"></line><text x="5" y="31" fill="white" class="classText"><tspan x="5">-watchers: Watcher[]</tspan><tspan x="5" dy="10">-...</tspan></text><line x1="0" y1="47" y2="47" x2="219"></line><text x="5" y="62" fill="white" class="classText"><tspan x="5">+registerWatcher(watcher: Watcher)</tspan></text></g><g id="classid-InspectorClient-3" class="classGroup" transform="translate(574.5,198.5 )"><rect x="0" y="0" width="100" height="67" class=" "></rect><text y="15" x="0"><tspan class="title" x="5">InspectorClient</tspan></text><line x1="0" y1="21" y2="21" x2="100"></line><text x="5" y="31" fill="white" class="classText"></text><line x1="0" y1="26" y2="26" x2="100"></line><text x="5" y="41" fill="white" class="classText"><tspan x="5">+connect()</tspan><tspan x="5" dy="10">+emit()</tspan><tspan x="5" dy="10">+on()</tspan></text></g><g id="classid-NodeDebugProcess-4" class="classGroup" transform="translate(529,316 )"><rect x="0" y="0" width="106" height="51" class=" "></rect><text y="15" x="0"><tspan class="title" x="5">NodeDebugProcess</tspan></text><line x1="0" y1="21" y2="21" x2="106"></line><text x="5" y="31" fill="white" class="classText"><tspan x="5">- script: File</tspan><tspan x="5" dy="10">-...</tspan></text><line x1="0" y1="47" y2="47" x2="106"></line><text x="5" y="62" fill="white" class="classText"></text></g><g id="classid-Watcher-5" class="classGroup" transform="translate(98,318 )"><rect x="0" y="0" width="381" height="47" class=" "></rect><text y="15" x="0"><tspan class="title" x="169.5">Watcher</tspan></text><line x1="0" y1="21" y2="21" x2="381"></line><text x="5" y="31" fill="white" class="classText"></text><line x1="0" y1="26" y2="26" x2="381"></line><text x="5" y="41" fill="white" class="classText"><tspan x="5">+onDebugEvent(inspector: NodeInspector, domain, name, params)</tspan></text></g><path d="M182,119.0576923076923L160.75,128.04807692307693C139.5,137.03846153846155,97,155.01923076923077,76.45621468926554,168.17628205128204C55.91242937853107,181.33333333333334,57.324858757062145,189.66666666666666,58.031073446327675,193.83333333333334L58.73728813559322,198" id="edge0" class="relation dashed-line" marker-start="url(#dependencyStart)"></path><g class="classLabel"><rect class="box" x="86.0625" y="139.46875" width="41.015625" height="16.015625"></rect><text class="label" x="106.57372408076054" y="150.96880904275514" fill="red" text-anchor="middle">depend</text></g><path d="M197.3080808080808,148L192.1734006734007,152.16666666666666C187.03872053872055,156.33333333333334,176.76936026936028,164.66666666666666,164.43129030417165,173C152.09322033898306,181.33333333333334,137.6864406779661,189.66666666666666,130.48305084745763,193.83333333333334L123.27966101694915,198" id="edge1" class="relation dashed-line" marker-end="url(#dependencyEnd)"></path><g class="classLabel"><rect class="box" x="141.546875" y="164.0625" width="41.015625" height="16.015625"></rect><text class="label" x="162.06174091502874" y="175.56722829424808" fill="red" text-anchor="middle">create</text></g><path d="M212.25757575757575,148L207.96464646464645,152.16666666666666C203.67171717171718,156.33333333333334,195.08585858585857,164.66666666666666,197.99631912343776,173C200.90677966101694,181.33333333333334,215.3135593220339,189.66666666666666,222.51694915254237,193.83333333333334L229.72033898305085,198" id="edge2" class="relation dashed-line" marker-start="url(#dependencyStart)"></path><g class="classLabel"><rect class="box" x="172.0625" y="165" width="41.015625" height="16.015625"></rect><text class="label" x="192.57444626608793" y="176.51365029116852" fill="red" text-anchor="middle">depend</text></g><path d="M390.7171717171717,148L396.47264309764313,152.16666666666666C402.2281144781145,156.33333333333334,413.7390572390573,164.66666666666666,409.8370427438224,173C405.93502824858757,181.33333333333334,386.6200564971752,189.66666666666666,376.96257062146896,193.83333333333334L367.3050847457627,198" id="edge3" class="relation dashed-line" marker-end="url(#dependencyEnd)"></path><g class="classLabel"><rect class="box" x="395.34375" y="165.546875" width="41.015625" height="16.015625"></rect><text class="label" x="415.8497773228612" y="177.05567194114212" fill="red" text-anchor="middle">create</text></g><path d="M395,105.37946428571428L433.25,116.64955357142856C471.5,127.91964285714285,548,150.45982142857142,586.25,165.9799107142857C624.5,181.5,624.5,190,624.5,194.25L624.5,198.5" id="edge4" class="relation dashed-line" marker-end="url(#dependencyEnd)"></path><g class="classLabel"><rect class="box" x="501.46875" y="131.28125" width="41.015625" height="16.015625"></rect><text class="label" x="521.9801698955383" y="142.79326434422111" fill="red" text-anchor="middle">create</text></g><path d="M395,122.14383561643837L413.75,130.61986301369862C432.5,139.0958904109589,470,156.04794520547946,488.75,174.35730593607306C507.5,192.66666666666666,507.5,212.33333333333334,507.5,232C507.5,251.66666666666666,507.5,271.3333333333333,513.6468646864687,285.3333333333333C519.7937293729373,299.3333333333333,532.0874587458746,307.6666666666667,538.2343234323433,311.8333333333333L544.3811881188119,316" id="edge5" class="relation dashed-line" marker-end="url(#dependencyEnd)"></path><g class="classLabel"><rect class="box" x="466" y="181.046875" width="83" height="16.015625"></rect><text class="label" x="507.5" y="192.5474538866286" fill="red" text-anchor="middle">startServer()</text></g><path d="M624.5,265.5L624.5,269.75C624.5,274,624.5,282.5,620.993399339934,290.9166666666667C617.486798679868,299.3333333333333,610.473597359736,307.6666666666667,606.96699669967,311.8333333333333L603.460396039604,316" id="edge6" class="relation dashed-line" marker-end="url(#dependencyEnd)"></path><g class="classLabel"><rect class="box" x="592.6875" y="282.234375" width="59.015625" height="16.015625"></rect><text class="label" x="622.1899541308824" y="293.7448780327164" fill="red" text-anchor="middle">connect()</text></g><path d="M288.5,266L288.5,270.1666666666667C288.5,274.3333333333333,288.5,282.6666666666667,288.5,291.3333333333333C288.5,300,288.5,309,288.5,313.5L288.5,318" id="edge7" class="relation dashed-line" marker-end="url(#dependencyEnd)"></path><g class="classLabel"><rect class="box" x="262" y="280.5" width="53" height="16"></rect><text class="label" x="288.5" y="292" fill="red" text-anchor="middle">register</text></g></svg>